<?xml version="1.0" encoding="UTF-8" standalone="no"?><svg xmlns="http://www.w3.org/2000/svg" id="sleep_bed" width="16" height="16" viewBox="0 0 16 16" preserveAspectRatio="xMidYMid meet" rendering="crispEdges"><rect id="13-1" x="12" y="0" width="1" height="1" shape-rendering="crispEdges" style="fill:#93aaac;opacity:255;"></rect><rect id="14-1" x="13" y="0" width="1" height="1" shape-rendering="crispEdges" style="fill:#93aaac;opacity:255;"></rect><rect id="15-1" x="14" y="0" width="1" height="1" shape-rendering="crispEdges" style="fill:#93aaac;opacity:255;"></rect><rect id="16-1" x="15" y="0" width="1" height="1" shape-rendering="crispEdges" style="fill:#93aaac;opacity:255;"></rect><rect id="8-2" x="7" y="1" width="1" height="1" shape-rendering="crispEdges" style="fill:#93aaac;opacity:255;"></rect><rect id="9-2" x="8" y="1" width="1" height="1" shape-rendering="crispEdges" style="fill:#93aaac;opacity:255;"></rect><rect id="10-2" x="9" y="1" width="1" height="1" shape-rendering="crispEdges" style="fill:#93aaac;opacity:255;"></rect><rect id="11-2" x="10" y="1" width="1" height="1" shape-rendering="crispEdges" style="fill:#93aaac;opacity:255;"></rect><rect id="15-2" x="14" y="1" width="1" height="1" shape-rendering="crispEdges" style="fill:#93aaac;opacity:255;"></rect><rect id="10-3" x="9" y="2" width="1" height="1" shape-rendering="crispEdges" style="fill:#93aaac;opacity:255;"></rect><rect id="14-3" x="13" y="2" width="1" height="1" shape-rendering="crispEdges" style="fill:#93aaac;opacity:255;"></rect><rect id="9-4" x="8" y="3" width="1" height="1" shape-rendering="crispEdges" style="fill:#93aaac;opacity:255;"></rect><rect id="13-4" x="12" y="3" width="1" height="1" shape-rendering="crispEdges" style="fill:#93aaac;opacity:255;"></rect><rect id="14-4" x="13" y="3" width="1" height="1" shape-rendering="crispEdges" style="fill:#93aaac;opacity:255;"></rect><rect id="15-4" x="14" y="3" width="1" height="1" shape-rendering="crispEdges" style="fill:#93aaac;opacity:255;"></rect><rect id="16-4" x="15" y="3" width="1" height="1" shape-rendering="crispEdges" style="fill:#93aaac;opacity:255;"></rect><rect id="8-5" x="7" y="4" width="1" height="1" shape-rendering="crispEdges" style="fill:#93aaac;opacity:255;"></rect><rect id="9-5" x="8" y="4" width="1" height="1" shape-rendering="crispEdges" style="fill:#93aaac;opacity:255;"></rect><rect id="10-5" x="9" y="4" width="1" height="1" shape-rendering="crispEdges" style="fill:#93aaac;opacity:255;"></rect><rect id="11-5" x="10" y="4" width="1" height="1" shape-rendering="crispEdges" style="fill:#93aaac;opacity:255;"></rect><rect id="4-6" x="3" y="5" width="1" height="1" shape-rendering="crispEdges" style="fill:#93aaac;opacity:255;"></rect><rect id="5-6" x="4" y="5" width="1" height="1" shape-rendering="crispEdges" style="fill:#93aaac;opacity:255;"></rect><rect id="6-6" x="5" y="5" width="1" height="1" shape-rendering="crispEdges" style="fill:#93aaac;opacity:255;"></rect><rect id="7-6" x="6" y="5" width="1" height="1" shape-rendering="crispEdges" style="fill:#93aaac;opacity:255;"></rect><rect id="1-7" x="0" y="6" width="1" height="1" shape-rendering="crispEdges" style="fill:#856a54;opacity:255;"></rect><rect id="2-7" x="1" y="6" width="1" height="1" shape-rendering="crispEdges" style="fill:#856a54;opacity:255;"></rect><rect id="6-7" x="5" y="6" width="1" height="1" shape-rendering="crispEdges" style="fill:#93aaac;opacity:255;"></rect><rect id="1-8" x="0" y="7" width="1" height="1" shape-rendering="crispEdges" style="fill:#856a54;opacity:255;"></rect><rect id="2-8" x="1" y="7" width="1" height="1" shape-rendering="crispEdges" style="fill:#ae9581;opacity:255;"></rect><rect id="3-8" x="2" y="7" width="1" height="1" shape-rendering="crispEdges" style="fill:#856a54;opacity:255;"></rect><rect id="5-8" x="4" y="7" width="1" height="1" shape-rendering="crispEdges" style="fill:#93aaac;opacity:255;"></rect><rect id="1-9" x="0" y="8" width="1" height="1" shape-rendering="crispEdges" style="fill:#856a54;opacity:255;"></rect><rect id="2-9" x="1" y="8" width="1" height="1" shape-rendering="crispEdges" style="fill:#ae9581;opacity:255;"></rect><rect id="3-9" x="2" y="8" width="1" height="1" shape-rendering="crispEdges" style="fill:#ffffff;opacity:255;"></rect><rect id="4-9" x="3" y="8" width="1" height="1" shape-rendering="crispEdges" style="fill:#93aaac;opacity:255;"></rect><rect id="5-9" x="4" y="8" width="1" height="1" shape-rendering="crispEdges" style="fill:#93aaac;opacity:255;"></rect><rect id="6-9" x="5" y="8" width="1" height="1" shape-rendering="crispEdges" style="fill:#93aaac;opacity:255;"></rect><rect id="7-9" x="6" y="8" width="1" height="1" shape-rendering="crispEdges" style="fill:#93aaac;opacity:255;"></rect><rect id="1-10" x="0" y="9" width="1" height="1" shape-rendering="crispEdges" style="fill:#856a54;opacity:255;"></rect><rect id="2-10" x="1" y="9" width="1" height="1" shape-rendering="crispEdges" style="fill:#ae9581;opacity:255;"></rect><rect id="3-10" x="2" y="9" width="1" height="1" shape-rendering="crispEdges" style="fill:#ffffff;opacity:255;"></rect><rect id="4-10" x="3" y="9" width="1" height="1" shape-rendering="crispEdges" style="fill:#ffffff;opacity:255;"></rect><rect id="5-10" x="4" y="9" width="1" height="1" shape-rendering="crispEdges" style="fill:#adbeb4;opacity:255;"></rect><rect id="6-10" x="5" y="9" width="1" height="1" shape-rendering="crispEdges" style="fill:#adbeb4;opacity:255;"></rect><rect id="7-10" x="6" y="9" width="1" height="1" shape-rendering="crispEdges" style="fill:#adbeb4;opacity:255;"></rect><rect id="8-10" x="7" y="9" width="1" height="1" shape-rendering="crispEdges" style="fill:#adbeb4;opacity:255;"></rect><rect id="9-10" x="8" y="9" width="1" height="1" shape-rendering="crispEdges" style="fill:#adbeb4;opacity:255;"></rect><rect id="10-10" x="9" y="9" width="1" height="1" shape-rendering="crispEdges" style="fill:#adbeb4;opacity:255;"></rect><rect id="11-10" x="10" y="9" width="1" height="1" shape-rendering="crispEdges" style="fill:#adbeb4;opacity:255;"></rect><rect id="12-10" x="11" y="9" width="1" height="1" shape-rendering="crispEdges" style="fill:#adbeb4;opacity:255;"></rect><rect id="13-10" x="12" y="9" width="1" height="1" shape-rendering="crispEdges" style="fill:#adbeb4;opacity:255;"></rect><rect id="14-10" x="13" y="9" width="1" height="1" shape-rendering="crispEdges" style="fill:#adbeb4;opacity:255;"></rect><rect id="15-10" x="14" y="9" width="1" height="1" shape-rendering="crispEdges" style="fill:#adbeb4;opacity:255;"></rect><rect id="1-11" x="0" y="10" width="1" height="1" shape-rendering="crispEdges" style="fill:#856a54;opacity:255;"></rect><rect id="2-11" x="1" y="10" width="1" height="1" shape-rendering="crispEdges" style="fill:#ae9581;opacity:255;"></rect><rect id="3-11" x="2" y="10" width="1" height="1" shape-rendering="crispEdges" style="fill:#ffffff;opacity:255;"></rect><rect id="4-11" x="3" y="10" width="1" height="1" shape-rendering="crispEdges" style="fill:#ffffff;opacity:255;"></rect><rect id="5-11" x="4" y="10" width="1" height="1" shape-rendering="crispEdges" style="fill:#adbeb4;opacity:255;"></rect><rect id="6-11" x="5" y="10" width="1" height="1" shape-rendering="crispEdges" style="fill:#c7d0bd;opacity:255;"></rect><rect id="7-11" x="6" y="10" width="1" height="1" shape-rendering="crispEdges" style="fill:#c7d0bd;opacity:255;"></rect><rect id="8-11" x="7" y="10" width="1" height="1" shape-rendering="crispEdges" style="fill:#c7d0bd;opacity:255;"></rect><rect id="9-11" x="8" y="10" width="1" height="1" shape-rendering="crispEdges" style="fill:#c7d0bd;opacity:255;"></rect><rect id="10-11" x="9" y="10" width="1" height="1" shape-rendering="crispEdges" style="fill:#c7d0bd;opacity:255;"></rect><rect id="11-11" x="10" y="10" width="1" height="1" shape-rendering="crispEdges" style="fill:#c7d0bd;opacity:255;"></rect><rect id="12-11" x="11" y="10" width="1" height="1" shape-rendering="crispEdges" style="fill:#c7d0bd;opacity:255;"></rect><rect id="13-11" x="12" y="10" width="1" height="1" shape-rendering="crispEdges" style="fill:#c7d0bd;opacity:255;"></rect><rect id="14-11" x="13" y="10" width="1" height="1" shape-rendering="crispEdges" style="fill:#c7d0bd;opacity:255;"></rect><rect id="15-11" x="14" y="10" width="1" height="1" shape-rendering="crispEdges" style="fill:#c7d0bd;opacity:255;"></rect><rect id="16-11" x="15" y="10" width="1" height="1" shape-rendering="crispEdges" style="fill:#adbeb4;opacity:255;"></rect><rect id="1-12" x="0" y="11" width="1" height="1" shape-rendering="crispEdges" style="fill:#856a54;opacity:255;"></rect><rect id="2-12" x="1" y="11" width="1" height="1" shape-rendering="crispEdges" style="fill:#ae9581;opacity:255;"></rect><rect id="3-12" x="2" y="11" width="1" height="1" shape-rendering="crispEdges" style="fill:#ffffff;opacity:255;"></rect><rect id="4-12" x="3" y="11" width="1" height="1" shape-rendering="crispEdges" style="fill:#ffffff;opacity:255;"></rect><rect id="5-12" x="4" y="11" width="1" height="1" shape-rendering="crispEdges" style="fill:#adbeb4;opacity:255;"></rect><rect id="6-12" x="5" y="11" width="1" height="1" shape-rendering="crispEdges" style="fill:#c7d0bd;opacity:255;"></rect><rect id="7-12" x="6" y="11" width="1" height="1" shape-rendering="crispEdges" style="fill:#c7d0bd;opacity:255;"></rect><rect id="8-12" x="7" y="11" width="1" height="1" shape-rendering="crispEdges" style="fill:#c7d0bd;opacity:255;"></rect><rect id="9-12" x="8" y="11" width="1" height="1" shape-rendering="crispEdges" style="fill:#c7d0bd;opacity:255;"></rect><rect id="10-12" x="9" y="11" width="1" height="1" shape-rendering="crispEdges" style="fill:#c7d0bd;opacity:255;"></rect><rect id="11-12" x="10" y="11" width="1" height="1" shape-rendering="crispEdges" style="fill:#c7d0bd;opacity:255;"></rect><rect id="12-12" x="11" y="11" width="1" height="1" shape-rendering="crispEdges" style="fill:#c7d0bd;opacity:255;"></rect><rect id="13-12" x="12" y="11" width="1" height="1" shape-rendering="crispEdges" style="fill:#c7d0bd;opacity:255;"></rect><rect id="14-12" x="13" y="11" width="1" height="1" shape-rendering="crispEdges" style="fill:#c7d0bd;opacity:255;"></rect><rect id="15-12" x="14" y="11" width="1" height="1" shape-rendering="crispEdges" style="fill:#c7d0bd;opacity:255;"></rect><rect id="16-12" x="15" y="11" width="1" height="1" shape-rendering="crispEdges" style="fill:#adbeb4;opacity:255;"></rect><rect id="1-13" x="0" y="12" width="1" height="1" shape-rendering="crispEdges" style="fill:#856a54;opacity:255;"></rect><rect id="2-13" x="1" y="12" width="1" height="1" shape-rendering="crispEdges" style="fill:#ae9581;opacity:255;"></rect><rect id="3-13" x="2" y="12" width="1" height="1" shape-rendering="crispEdges" style="fill:#ae9581;opacity:255;"></rect><rect id="4-13" x="3" y="12" width="1" height="1" shape-rendering="crispEdges" style="fill:#ae9581;opacity:255;"></rect><rect id="5-13" x="4" y="12" width="1" height="1" shape-rendering="crispEdges" style="fill:#adbeb4;opacity:255;"></rect><rect id="6-13" x="5" y="12" width="1" height="1" shape-rendering="crispEdges" style="fill:#adbeb4;opacity:255;"></rect><rect id="7-13" x="6" y="12" width="1" height="1" shape-rendering="crispEdges" style="fill:#adbeb4;opacity:255;"></rect><rect id="8-13" x="7" y="12" width="1" height="1" shape-rendering="crispEdges" style="fill:#adbeb4;opacity:255;"></rect><rect id="9-13" x="8" y="12" width="1" height="1" shape-rendering="crispEdges" style="fill:#adbeb4;opacity:255;"></rect><rect id="10-13" x="9" y="12" width="1" height="1" shape-rendering="crispEdges" style="fill:#adbeb4;opacity:255;"></rect><rect id="11-13" x="10" y="12" width="1" height="1" shape-rendering="crispEdges" style="fill:#adbeb4;opacity:255;"></rect><rect id="12-13" x="11" y="12" width="1" height="1" shape-rendering="crispEdges" style="fill:#adbeb4;opacity:255;"></rect><rect id="13-13" x="12" y="12" width="1" height="1" shape-rendering="crispEdges" style="fill:#adbeb4;opacity:255;"></rect><rect id="14-13" x="13" y="12" width="1" height="1" shape-rendering="crispEdges" style="fill:#adbeb4;opacity:255;"></rect><rect id="15-13" x="14" y="12" width="1" height="1" shape-rendering="crispEdges" style="fill:#adbeb4;opacity:255;"></rect><rect id="16-13" x="15" y="12" width="1" height="1" shape-rendering="crispEdges" style="fill:#856a54;opacity:255;"></rect><rect id="1-14" x="0" y="13" width="1" height="1" shape-rendering="crispEdges" style="fill:#856a54;opacity:255;"></rect><rect id="2-14" x="1" y="13" width="1" height="1" shape-rendering="crispEdges" style="fill:#9a806c;opacity:255;"></rect><rect id="3-14" x="2" y="13" width="1" height="1" shape-rendering="crispEdges" style="fill:#9a806c;opacity:255;"></rect><rect id="4-14" x="3" y="13" width="1" height="1" shape-rendering="crispEdges" style="fill:#9a806c;opacity:255;"></rect><rect id="5-14" x="4" y="13" width="1" height="1" shape-rendering="crispEdges" style="fill:#9a806c;opacity:255;"></rect><rect id="6-14" x="5" y="13" width="1" height="1" shape-rendering="crispEdges" style="fill:#9a806c;opacity:255;"></rect><rect id="7-14" x="6" y="13" width="1" height="1" shape-rendering="crispEdges" style="fill:#9a806c;opacity:255;"></rect><rect id="8-14" x="7" y="13" width="1" height="1" shape-rendering="crispEdges" style="fill:#9a806c;opacity:255;"></rect><rect id="9-14" x="8" y="13" width="1" height="1" shape-rendering="crispEdges" style="fill:#9a806c;opacity:255;"></rect><rect id="10-14" x="9" y="13" width="1" height="1" shape-rendering="crispEdges" style="fill:#9a806c;opacity:255;"></rect><rect id="11-14" x="10" y="13" width="1" height="1" shape-rendering="crispEdges" style="fill:#9a806c;opacity:255;"></rect><rect id="12-14" x="11" y="13" width="1" height="1" shape-rendering="crispEdges" style="fill:#9a806c;opacity:255;"></rect><rect id="13-14" x="12" y="13" width="1" height="1" shape-rendering="crispEdges" style="fill:#9a806c;opacity:255;"></rect><rect id="14-14" x="13" y="13" width="1" height="1" shape-rendering="crispEdges" style="fill:#9a806c;opacity:255;"></rect><rect id="15-14" x="14" y="13" width="1" height="1" shape-rendering="crispEdges" style="fill:#9a806c;opacity:255;"></rect><rect id="16-14" x="15" y="13" width="1" height="1" shape-rendering="crispEdges" style="fill:#856a54;opacity:255;"></rect><rect id="1-15" x="0" y="14" width="1" height="1" shape-rendering="crispEdges" style="fill:#856a54;opacity:255;"></rect><rect id="2-15" x="1" y="14" width="1" height="1" shape-rendering="crispEdges" style="fill:#9a806c;opacity:255;"></rect><rect id="3-15" x="2" y="14" width="1" height="1" shape-rendering="crispEdges" style="fill:#9a806c;opacity:255;"></rect><rect id="4-15" x="3" y="14" width="1" height="1" shape-rendering="crispEdges" style="fill:#856a54;opacity:255;"></rect><rect id="5-15" x="4" y="14" width="1" height="1" shape-rendering="crispEdges" style="fill:#856a54;opacity:255;"></rect><rect id="6-15" x="5" y="14" width="1" height="1" shape-rendering="crispEdges" style="fill:#856a54;opacity:255;"></rect><rect id="7-15" x="6" y="14" width="1" height="1" shape-rendering="crispEdges" style="fill:#856a54;opacity:255;"></rect><rect id="8-15" x="7" y="14" width="1" height="1" shape-rendering="crispEdges" style="fill:#856a54;opacity:255;"></rect><rect id="9-15" x="8" y="14" width="1" height="1" shape-rendering="crispEdges" style="fill:#856a54;opacity:255;"></rect><rect id="10-15" x="9" y="14" width="1" height="1" shape-rendering="crispEdges" style="fill:#856a54;opacity:255;"></rect><rect id="11-15" x="10" y="14" width="1" height="1" shape-rendering="crispEdges" style="fill:#856a54;opacity:255;"></rect><rect id="12-15" x="11" y="14" width="1" height="1" shape-rendering="crispEdges" style="fill:#856a54;opacity:255;"></rect><rect id="13-15" x="12" y="14" width="1" height="1" shape-rendering="crispEdges" style="fill:#856a54;opacity:255;"></rect><rect id="14-15" x="13" y="14" width="1" height="1" shape-rendering="crispEdges" style="fill:#9a806c;opacity:255;"></rect><rect id="15-15" x="14" y="14" width="1" height="1" shape-rendering="crispEdges" style="fill:#9a806c;opacity:255;"></rect><rect id="16-15" x="15" y="14" width="1" height="1" shape-rendering="crispEdges" style="fill:#856a54;opacity:255;"></rect><rect id="1-16" x="0" y="15" width="1" height="1" shape-rendering="crispEdges" style="fill:#856a54;opacity:255;"></rect><rect id="2-16" x="1" y="15" width="1" height="1" shape-rendering="crispEdges" style="fill:#856a54;opacity:255;"></rect><rect id="3-16" x="2" y="15" width="1" height="1" shape-rendering="crispEdges" style="fill:#856a54;opacity:255;"></rect><rect id="14-16" x="13" y="15" width="1" height="1" shape-rendering="crispEdges" style="fill:#856a54;opacity:255;"></rect><rect id="15-16" x="14" y="15" width="1" height="1" shape-rendering="crispEdges" style="fill:#856a54;opacity:255;"></rect><rect id="16-16" x="15" y="15" width="1" height="1" shape-rendering="crispEdges" style="fill:#856a54;opacity:255;"></rect></svg>